<?xml version="1.0" encoding="UTF-8" standalone="no"?><svg xmlns="http://www.w3.org/2000/svg" xmlns:xlink="http://www.w3.org/1999/xlink" contentScriptType="application/ecmascript" contentStyleType="text/css" height="503px" preserveAspectRatio="none" style="width:370px;height:503px;background:#FFFFFF;" version="1.1" viewBox="0 0 370 503" width="370px" zoomAndPan="magnify"><defs><filter height="300%" id="fvuzaovrvgagi" width="300%" x="-1" y="-1"><feGaussianBlur result="blurOut" stdDeviation="2.0"/><feColorMatrix in="blurOut" result="blurOut2" type="matrix" values="0 0 0 0 0 0 0 0 0 0 0 0 0 0 0 0 0 0 .4 0"/><feOffset dx="4.0" dy="4.0" in="blurOut2" result="blurOut3"/><feBlend in="SourceGraphic" in2="blurOut3" mode="normal"/></filter></defs><g><rect fill="none" height="11.6406" style="stroke:none;stroke-width:1.0;" width="268" x="21" y="10"/><text fill="#888888" font-family="sans-serif" font-size="10" lengthAdjust="spacing" textLength="268" x="21" y="19.2822">整理emacs相关重点知识框架，加固理解和运用emacs改变现状</text><rect fill="none" height="42.5938" style="stroke:none;stroke-width:1.0;" width="203" x="53.5" y="27.6406"/><text fill="#000000" font-family="sans-serif" font-size="14" font-weight="bold" lengthAdjust="spacing" textLength="106" x="102" y="45.6357">emacs-xmd脑图</text><text fill="#000000" font-family="sans-serif" font-size="14" font-weight="bold" lengthAdjust="spacing" textLength="193" x="58.5" y="61.9326">创建时间: 2021-08-05 23:02</text><rect fill="#FEFECE" filter="url(#fvuzaovrvgagi)" height="36.2969" rx="12.5" ry="12.5" style="stroke:#A80036;stroke-width:1.5;" width="66" x="10" y="226.9766"/><text fill="#000000" font-family="sans-serif" font-size="14" lengthAdjust="spacing" textLength="46" x="20" y="249.9717">emacs</text><rect fill="#FEFECE" filter="url(#fvuzaovrvgagi)" height="36.2969" rx="12.5" ry="12.5" style="stroke:#A80036;stroke-width:1.5;" width="64" x="126" y="86.2344"/><text fill="#000000" font-family="sans-serif" font-size="14" lengthAdjust="spacing" textLength="44" x="136" y="109.2295">时间管理</text><rect fill="#FEFECE" filter="url(#fvuzaovrvgagi)" height="36.2969" rx="12.5" ry="12.5" style="stroke:#A80036;stroke-width:1.5;" width="72" x="240" y="86.2344"/><text fill="#000000" font-family="sans-serif" font-size="14" lengthAdjust="spacing" textLength="52" x="250" y="109.2295">agenda</text><path d="M190,104.3828 L200,104.3828 C215,104.3828 215,104.3828 230,104.3828 L240,104.3828 " fill="none" style="stroke:#A80036;stroke-width:1.0;"/><path d="M76,245.125 L86,245.125 C101,245.125 101,104.3828 116,104.3828 L126,104.3828 " fill="none" style="stroke:#A80036;stroke-width:1.0;"/><rect fill="#FEFECE" filter="url(#fvuzaovrvgagi)" height="36.2969" rx="12.5" ry="12.5" style="stroke:#A80036;stroke-width:1.5;" width="70" x="126" y="142.5313"/><text fill="#000000" font-family="sans-serif" font-size="14" lengthAdjust="spacing" textLength="50" x="136" y="165.5264">项目管理</text><rect fill="#FEFECE" filter="url(#fvuzaovrvgagi)" height="36.2969" rx="12.5" ry="12.5" style="stroke:#A80036;stroke-width:1.5;" width="52" x="246" y="142.5313"/><text fill="#000000" font-family="sans-serif" font-size="14" lengthAdjust="spacing" textLength="32" x="256" y="165.5264">todo</text><path d="M196,160.6797 L206,160.6797 C221,160.6797 221,160.6797 236,160.6797 L246,160.6797 " fill="none" style="stroke:#A80036;stroke-width:1.0;"/><path d="M76,245.125 L86,245.125 C101,245.125 101,160.6797 116,160.6797 L126,160.6797 " fill="none" style="stroke:#A80036;stroke-width:1.0;"/><rect fill="#FEFECE" filter="url(#fvuzaovrvgagi)" height="36.2969" rx="12.5" ry="12.5" style="stroke:#A80036;stroke-width:1.5;" width="70" x="126" y="226.9766"/><text fill="#000000" font-family="sans-serif" font-size="14" lengthAdjust="spacing" textLength="50" x="136" y="249.9717">目标管理</text><rect fill="#FEFECE" filter="url(#fvuzaovrvgagi)" height="36.2969" rx="12.5" ry="12.5" style="stroke:#A80036;stroke-width:1.5;" width="76" x="246" y="198.8281"/><text fill="#000000" font-family="sans-serif" font-size="14" lengthAdjust="spacing" textLength="56" x="256" y="221.8232">使命宣言</text><path d="M196,245.125 L206,245.125 C221,245.125 221,216.9766 236,216.9766 L246,216.9766 " fill="none" style="stroke:#A80036;stroke-width:1.0;"/><rect fill="#FEFECE" filter="url(#fvuzaovrvgagi)" height="36.2969" rx="12.5" ry="12.5" style="stroke:#A80036;stroke-width:1.5;" width="48" x="246" y="255.125"/><text fill="#000000" font-family="sans-serif" font-size="14" lengthAdjust="spacing" textLength="28" x="256" y="278.1201">愿景</text><path d="M196,245.125 L206,245.125 C221,245.125 221,273.2734 236,273.2734 L246,273.2734 " fill="none" style="stroke:#A80036;stroke-width:1.0;"/><path d="M76,245.125 L86,245.125 C101,245.125 101,245.125 116,245.125 L126,245.125 " fill="none" style="stroke:#A80036;stroke-width:1.0;"/><rect fill="#FEFECE" filter="url(#fvuzaovrvgagi)" height="36.2969" rx="12.5" ry="12.5" style="stroke:#A80036;stroke-width:1.5;" width="98" x="126" y="339.5703"/><text fill="#000000" font-family="sans-serif" font-size="14" lengthAdjust="spacing" textLength="78" x="136" y="362.5654">知识体系管理</text><rect fill="#FEFECE" filter="url(#fvuzaovrvgagi)" height="36.2969" rx="12.5" ry="12.5" style="stroke:#A80036;stroke-width:1.5;" width="76" x="274" y="311.4219"/><text fill="#000000" font-family="sans-serif" font-size="14" lengthAdjust="spacing" textLength="56" x="284" y="334.417">博客管理</text><path d="M224,357.7188 L234,357.7188 C249,357.7188 249,329.5703 264,329.5703 L274,329.5703 " fill="none" style="stroke:#A80036;stroke-width:1.0;"/><rect fill="#FEFECE" filter="url(#fvuzaovrvgagi)" height="36.2969" rx="12.5" ry="12.5" style="stroke:#A80036;stroke-width:1.5;" width="77" x="274" y="367.7188"/><text fill="#000000" font-family="sans-serif" font-size="14" lengthAdjust="spacing" textLength="57" x="284" y="390.7139">ox-hugo</text><path d="M224,357.7188 L234,357.7188 C249,357.7188 249,385.8672 264,385.8672 L274,385.8672 " fill="none" style="stroke:#A80036;stroke-width:1.0;"/><path d="M76,245.125 L86,245.125 C101,245.125 101,357.7188 116,357.7188 L126,357.7188 " fill="none" style="stroke:#A80036;stroke-width:1.0;"/><rect fill="#DDDDDD" height="28.2969" rx="7.5" ry="7.5" style="stroke:#000000;stroke-width:1.0;" width="84" x="208" y="422.0156"/><text fill="#000000" font-family="sans-serif" font-size="14" lengthAdjust="spacing" textLength="72" x="214" y="441.0107">图表备注区域</text><rect fill="none" height="16.2969" style="stroke:none;stroke-width:1.0;" width="50" x="130" y="460.3125"/><text fill="#000000" font-family="sans-serif" font-size="14" lengthAdjust="spacing" textLength="50" x="130" y="473.3076">说明文字</text><rect fill="none" height="11.6406" style="stroke:none;stroke-width:1.0;" width="36" x="137" y="478.6094"/><text fill="#888888" font-family="sans-serif" font-size="10" lengthAdjust="spacing" textLength="36" x="137" y="487.8916">页眉描述</text><!--MD5=[35c0445b2df02a2b2a954f5b8fcd6bd3]
@startmindmap
scale 1
title
        emacs-xmd脑图
        创建时间: 2021-08-05 23:02
        endtitle

        center header
                整理emacs相关重点知识框架，加固理解和运用emacs改变现状
        endheader

        * emacs
        ** 时间管理
        *** agenda
        ** 项目管理
        *** todo
        ** 目标管理
        *** 使命宣言
        *** 愿景
        ** 知识体系管理
        *** 博客管理
        *** ox-hugo


        '给图表添加备注
        legend right
                图表备注区域
        endlegend

        caption 说明文字
        center footer
                页眉描述
        endfooter
        @endmindmap

@startmindmap
scale 1
title
        emacs-xmd脑图
        创建时间: 2021-08-05 23:02
        endtitle

        center header
                整理emacs相关重点知识框架，加固理解和运用emacs改变现状
        endheader

        * emacs
        ** 时间管理
        *** agenda
        ** 项目管理
        *** todo
        ** 目标管理
        *** 使命宣言
        *** 愿景
        ** 知识体系管理
        *** 博客管理
        *** ox-hugo


        legend right
                图表备注区域
        endlegend

        caption 说明文字
        center footer
                页眉描述
        endfooter
        @endmindmap

PlantUML version 1.2021.7(Sun May 23 12:40:07 UTC 2021)
(GPL source distribution)
Java Runtime: OpenJDK Runtime Environment
JVM: OpenJDK 64-Bit Server VM
Default Encoding: UTF-8
Language: en
Country: US
--></g></svg>